<?xml version="1.0" standalone="no"?>
<!DOCTYPE svg PUBLIC "-//W3C//DTD SVG 20010904//EN"
 "http://www.w3.org/TR/2001/REC-SVG-20010904/DTD/svg10.dtd">
<svg version="1.0" xmlns="http://www.w3.org/2000/svg"
 width="752.000000pt" height="752.000000pt" viewBox="0 0 752.000000 752.000000"
 preserveAspectRatio="xMidYMid meet">
<metadata>
Created by potrace 1.14, written by Peter Selinger 2001-2017
</metadata>
<g transform="translate(0.000000,752.000000) scale(0.100000,-0.100000)"
fill="#000000" stroke="none">
<path d="M0 3770 l0 -2910 33 0 c17 0 628 -1 1357 -1 1192 0 1410 2 1530 17
19 2 53 6 75 9 22 2 51 7 65 10 13 2 42 7 65 10 22 3 48 8 57 11 9 3 25 7 35
9 10 3 38 9 63 15 116 27 363 125 405 160 8 7 15 10 15 7 0 -10 157 89 218
138 75 58 128 108 188 176 79 89 94 109 94 119 0 6 5 10 10 10 6 0 10 6 10 14
0 8 4 16 8 18 12 5 92 148 92 164 0 8 5 14 10 14 6 0 10 7 10 15 0 8 11 39 25
70 13 30 24 58 25 60 0 3 0 6 1 8 0 1 2 9 4 17 2 8 11 44 21 80 9 36 18 79 20
95 2 17 6 39 8 50 19 78 24 314 11 434 -5 36 -9 75 -10 86 -14 126 -68 301
-132 430 -57 113 -68 132 -121 203 -128 172 -297 310 -497 406 -104 50 -110
52 -180 75 l-60 20 50 21 c99 42 269 137 285 159 3 3 18 15 34 25 55 35 189
172 259 265 64 85 161 257 181 321 5 14 9 27 11 30 9 20 16 42 29 90 15 54 21
82 32 149 3 18 8 43 11 55 2 11 6 98 7 191 3 149 -4 241 -27 365 -25 135 -114
362 -177 451 -11 15 -20 32 -20 38 0 5 -6 14 -13 18 -7 4 -21 21 -30 36 -66
103 -255 281 -394 370 -24 15 -46 27 -49 26 -4 0 -10 3 -13 8 -6 9 -179 95
-246 123 -60 25 -255 81 -255 73 0 -3 -6 0 -13 6 -8 6 -16 8 -19 6 -3 -3 -16
-1 -30 4 -13 5 -53 12 -88 16 -36 4 -76 10 -90 13 -14 3 -670 7 -1457 9
l-1433 4 0 -2911z m2440 1866 c19 -3 46 -8 60 -11 14 -4 36 -8 49 -11 13 -3
32 -9 43 -15 10 -5 18 -7 18 -5 0 3 42 -16 93 -41 159 -80 287 -233 323 -385
1 -5 2 -9 4 -10 9 -13 24 -133 24 -203 0 -258 -120 -467 -335 -583 -44 -24
-115 -53 -139 -57 -3 0 -27 -6 -55 -13 -27 -6 -66 -14 -85 -18 -46 -8 -1190
-14 -1191 -5 -3 15 -5 1347 -2 1357 4 11 1127 12 1193 0z m10 -2350 c119 -6
139 -9 233 -37 135 -40 230 -96 311 -183 120 -129 167 -255 170 -461 5 -267
-100 -473 -306 -603 -38 -23 -68 -40 -68 -38 0 3 -19 -4 -42 -14 -24 -10 -54
-21 -68 -24 -73 -16 -130 -27 -170 -33 -54 -7 -1249 -10 -1259 -3 -4 3 -7 319
-6 702 l0 697 45 3 c72 5 1045 0 1160 -6z"/>
<path d="M6080 6663 c-41 -7 -88 -15 -105 -17 -53 -8 -233 -75 -313 -117 -154
-80 -304 -213 -402 -354 -51 -74 -134 -225 -124 -225 4 0 2 -6 -4 -12 -9 -11
-42 -114 -44 -135 0 -5 -5 -19 -10 -33 -5 -14 -11 -38 -13 -55 -3 -16 -7 -48
-11 -70 -16 -92 -5 -379 16 -435 1 -3 3 -9 4 -15 33 -174 151 -396 288 -540
63 -67 206 -181 263 -210 17 -9 37 -20 45 -25 86 -54 305 -121 445 -137 118
-13 325 -7 424 12 60 11 196 52 256 77 65 27 204 99 229 119 142 112 188 158
272 269 100 133 165 282 201 460 17 88 21 143 18 285 -2 144 -8 190 -40 325
-2 8 -12 40 -23 70 -74 209 -218 404 -397 537 -100 75 -313 177 -415 198 -8 2
-35 8 -60 14 -25 5 -58 13 -75 16 -61 13 -349 12 -425 -2z m348 -249 c31 -4
59 -8 62 -9 3 -1 21 -5 40 -9 91 -20 215 -74 320 -139 151 -93 326 -353 356
-527 2 -14 9 -50 14 -80 10 -54 14 -238 6 -315 -10 -105 -71 -297 -100 -317
-6 -4 -7 -8 -3 -8 4 0 -15 -34 -43 -75 -53 -78 -194 -225 -217 -225 -8 0 -16
-7 -19 -15 -4 -8 -10 -15 -15 -15 -5 0 -26 -10 -47 -23 -39 -24 -135 -67 -187
-83 -28 -9 -146 -33 -185 -38 -46 -6 -225 -7 -270 -2 -71 9 -210 47 -277 77
-67 30 -176 96 -181 110 -2 5 -9 9 -17 9 -34 0 -201 205 -249 305 -10 22 -24
51 -31 65 -11 21 -21 56 -30 95 -2 6 -8 30 -15 55 -6 24 -14 74 -16 110 -2 36
-6 86 -8 113 -1 26 0 47 3 47 3 0 6 24 7 53 0 67 17 178 30 199 3 4 7 16 9 25
7 36 57 153 66 153 5 0 9 7 9 14 0 19 90 139 144 192 113 111 287 207 434 239
12 3 32 7 45 10 12 3 44 8 72 11 27 3 51 6 52 8 5 5 186 -2 241 -10z"/>
<path d="M5855 6060 c-2 -3 -3 -266 -4 -586 l0 -580 282 1 c273 2 359 9 427
38 14 6 27 11 30 12 122 41 236 169 282 316 19 62 23 96 23 214 0 140 -5 174
-45 277 -41 105 -128 201 -226 248 -114 55 -170 63 -482 64 -156 1 -285 -1
-287 -4z m577 -290 c103 -48 147 -127 154 -272 4 -104 -34 -217 -89 -265 -60
-51 -84 -58 -222 -58 l-130 0 0 312 0 312 120 -3 c99 -3 128 -7 167 -26z"/>
</g>
</svg>
